<svg id="Layer_1" data-name="Layer 1" xmlns="http://www.w3.org/2000/svg" viewBox="0 0 700 700">
    <title>Artboard 1</title>
    <path fill="white" stroke="white" d="M263.05,341.51a7.91,7.91,0,0,1-4.19-1.19c-48.45-30-99.39-85.85-103-134.51-3.13-42.39,17-75.83,58.34-96.71,14.48-7.32,39.34-16.9,75.55-21L308.53,86l-11.94,15.39c-13.54,17.45-28.89,37.23-34.94,57.1-3.93,12.88-3.85,30.65,8.15,41.9,11.19,10.49,29.83,13.3,47.85,16l1.68.26c20.79,3.14,42.06,8.36,56.84,25.1,12.91,14.63,19.83,34.11,21.76,61.31A8,8,0,0,1,382,304.18c-1.67-23.53-7.33-40-17.81-51.9-11.41-12.92-29.47-17.2-47.29-19.9l-1.67-.25c-19.48-2.94-41.55-6.27-56.36-20.15-14.5-13.59-19.29-35.88-12.5-58.16,5.09-16.68,15.25-32.45,26-47-42.18,8-105.57,31.11-100.64,97.82,3.17,42.89,51.56,94.95,95.49,122.15a8,8,0,0,1-4.2,14.73Z"/>
    <path fill="white" stroke="white" d="M247.13,416.36a7.91,7.91,0,0,1-2.77-.5c-92.1-34.09-120.32-79.49-129-103.51-8.85-24.67-9.72-52.17-2.37-75.46,8.08-25.64,25.28-44.39,48.43-52.81a8,8,0,0,1,5.44,15C125.8,214,116,266.71,130.4,307c7.69,21.42,33.44,62.1,119.49,94a8,8,0,0,1-2.76,15.43Z"/>
    <path fill="white" stroke="white" d="M564.58,204l27.31-18.79L559,189.49c-21.55,2.84-43.89,2.69-49-.25-8.9-26.75-37.08-45.83-67.46-45.35-25,.34-52.15,22.11-60.93,41.44a8,8,0,0,0,14.49,6.59c6.66-14.64,28.49-31.86,46.66-32.1,23.47-.31,46,14.8,52.36,35.16,2.88,9.2,14.18,12.93,37.82,12.43l.75,0L532,208.8c-23,19.31-25.23,28.14-24.42,34.23,1.26,9.46,2.88,18.89,4.44,28,6.55,38.15,12.73,74.18-6.87,109.28C493,402.08,474.55,418,445.32,431.79c-34.76,16.46-62.12,19.58-86.11,9.84-34.94-14.2-67.3-13.88-88.78.87-20.91,14.36-31.16,40.71-30.47,78.32.83,44.55,18.56,77.91,47.43,89.24A57.1,57.1,0,0,0,308.34,614c18.22,0,36.91-8.41,52-24.1a9,9,0,0,0,.82-1L350.13,577.8a7.67,7.67,0,0,0-1.24,1.05c-16.73,17.38-37.55,23.51-55.68,16.38-22.67-8.89-36.62-36.82-37.32-74.71-.6-31.92,7.33-53.75,23.55-64.89,17-11.67,43.88-11.39,73.78.75,28,11.39,60.37,8.05,98.91-10.2,32.42-15.35,53.06-33.26,66.92-58.08,22.35-40,15.39-80.55,8.67-119.75-1.52-8.86-3.09-18-4.31-27.06C524.74,235.55,543.81,218.23,564.58,204Z"/>
</svg>